<svg width="5" height="10" viewBox="0 0 5 10" fill="none" xmlns="http://www.w3.org/2000/svg">
<path d="M0.292126 1.30021L3.8026 4.68015C3.87958 4.75389 3.92436 4.85501 3.92723 4.96157C3.9301 5.06813 3.89081 5.17152 3.81791 5.24929L0.495047 8.81384C0.422194 8.89208 0.382984 8.9958 0.385859 9.10267C0.388735 9.20953 0.433467 9.311 0.510421 9.3852C0.548023 9.42175 0.59256 9.4504 0.641408 9.46947C0.690256 9.48854 0.742427 9.49764 0.794846 9.49623C0.847265 9.49482 0.898871 9.48293 0.946623 9.46126C0.994375 9.43959 1.03731 9.40859 1.07289 9.37007L4.39579 5.80699C4.61413 5.57232 4.73162 5.26132 4.723 4.9409C4.71438 4.62048 4.58033 4.31625 4.34969 4.09365L0.83998 0.714436C0.802364 0.677773 0.757779 0.649025 0.70886 0.629892C0.659942 0.610759 0.607683 0.601629 0.555175 0.603042C0.502667 0.604455 0.450975 0.616382 0.403156 0.638118C0.355337 0.659854 0.312362 0.690958 0.276772 0.729591C0.203919 0.807829 0.164708 0.91155 0.167584 1.01842C0.170459 1.12528 0.215192 1.22674 0.292146 1.30095" fill="#DE8417"/>
</svg>
