<svg width="30" height="29" viewBox="0 0 30 29" fill="none" xmlns="http://www.w3.org/2000/svg">
<path fill-rule="evenodd" clip-rule="evenodd" d="M13.6607 3.54213C11.5414 2.35499 7.57714 0.89999 3.20571 0.383562C1.44429 0.175704 0 1.62856 0 3.40285V20.5457C0 22.3221 1.45071 23.7364 3.19714 24.0536C7.14 24.7693 10.4207 26.6593 12.5143 28.155C12.8686 28.405 13.2507 28.595 13.6607 28.725V3.54213ZM16.3393 28.725C16.7493 28.5964 17.1307 28.4071 17.4836 28.1571C19.5771 26.6614 22.8579 24.7693 26.8029 24.0536C28.5493 23.7364 30 22.3221 30 20.5457V3.40285C30 1.62856 28.5557 0.175704 26.7943 0.385704C22.4229 0.904276 18.4586 2.35713 16.3393 3.54428V28.7271V28.725Z" fill="#E0E0E0"/>
</svg>
