<svg width="82" height="46" viewBox="0 0 82 46" fill="none" xmlns="http://www.w3.org/2000/svg">
<path d="M22.8182 45V41.3333C22.8182 36.471 24.7338 31.8079 28.1435 28.3697C31.5533 24.9315 36.1779 23 41 23M41 23C45.8221 23 50.4467 24.9315 53.8565 28.3697C57.2662 31.8079 59.1818 36.471 59.1818 41.3333V45M41 23C43.8933 23 46.668 21.8411 48.7139 19.7782C50.7597 17.7153 51.9091 14.9174 51.9091 12C51.9091 9.08262 50.7597 6.28473 48.7139 4.22183C46.668 2.15893 43.8933 1 41 1C38.1067 1 35.332 2.15893 33.2861 4.22183C31.2403 6.28473 30.0909 9.08262 30.0909 12C30.0909 14.9174 31.2403 17.7153 33.2861 19.7782C35.332 21.8411 38.1067 23 41 23ZM1 45V41.3333C1 38.416 2.14935 35.6181 4.1952 33.5552C6.24105 31.4923 9.01582 30.3333 11.9091 30.3333M11.9091 30.3333C13.8379 30.3333 15.6878 29.5607 17.0517 28.1854C18.4156 26.8102 19.1818 24.9449 19.1818 23C19.1818 21.0551 18.4156 19.1898 17.0517 17.8146C15.6878 16.4393 13.8379 15.6667 11.9091 15.6667C9.98024 15.6667 8.1304 16.4393 6.7665 17.8146C5.4026 19.1898 4.63636 21.0551 4.63636 23C4.63636 24.9449 5.4026 26.8102 6.7665 28.1854C8.1304 29.5607 9.98024 30.3333 11.9091 30.3333ZM81 45V41.3333C81 38.416 79.8507 35.6181 77.8048 33.5552C75.759 31.4923 72.9842 30.3333 70.0909 30.3333M70.0909 30.3333C72.0198 30.3333 73.8696 29.5607 75.2335 28.1854C76.5974 26.8102 77.3636 24.9449 77.3636 23C77.3636 21.0551 76.5974 19.1898 75.2335 17.8146C73.8696 16.4393 72.0198 15.6667 70.0909 15.6667C68.1621 15.6667 66.3122 16.4393 64.9483 17.8146C63.5844 19.1898 62.8182 21.0551 62.8182 23C62.8182 24.9449 63.5844 26.8102 64.9483 28.1854C66.3122 29.5607 68.1621 30.3333 70.0909 30.3333Z" stroke="#DE8417" stroke-width="1.5" stroke-linecap="round" stroke-linejoin="round"/>
</svg>
