<svg width="44" height="32" viewBox="0 0 44 32" fill="none" xmlns="http://www.w3.org/2000/svg">
<path d="M29.3331 16C27.4484 16 25.6261 15.1654 24.1998 13.6509C22.8129 12.1736 21.9659 10.2036 21.8164 8.10545C21.6569 5.86727 22.3454 3.80909 23.7543 2.30909C25.1632 0.80909 27.1331 0 29.3331 0C31.5175 0 33.4929 0.823635 34.8972 2.32C36.3153 3.8309 37.0055 5.88545 36.846 8.10454C36.693 10.2054 35.8469 12.1745 34.4627 13.65C33.0401 15.1654 31.2187 16 29.3331 16ZM41.4174 32H17.2496C16.8611 32.002 16.4772 31.9157 16.1276 31.7475C15.778 31.5793 15.4719 31.3339 15.233 31.03C14.9795 30.7005 14.8045 30.3185 14.721 29.9125C14.6375 29.5065 14.6477 29.087 14.7508 28.6854C15.5226 25.6118 17.4348 23.0627 20.2801 21.3145C22.8055 19.7636 26.0203 18.9091 29.3331 18.9091C32.711 18.9091 35.8414 19.7272 38.3814 21.2772C41.2332 23.0163 43.1481 25.58 43.9162 28.6909C44.0181 29.0927 44.0272 29.5122 43.9427 29.918C43.8583 30.3238 43.6825 30.7055 43.4286 31.0345C43.1899 31.337 42.8845 31.5813 42.5359 31.7486C42.1873 31.916 41.8047 32.0019 41.4174 32ZM12.0082 16.3636C8.78243 16.3636 5.94628 13.3891 5.6832 9.73363C5.55303 7.8609 6.14153 6.12908 7.33319 4.85909C8.51202 3.60181 10.1748 2.90909 12.0082 2.90909C13.8415 2.90909 15.4915 3.60545 16.6767 4.87C17.8776 6.14999 18.4642 7.87817 18.3267 9.73544C18.0636 13.39 15.2284 16.3636 12.0082 16.3636ZM18.027 19.2227C16.4146 18.4409 14.3218 18.05 12.0091 18.05C9.3086 18.05 6.68603 18.7482 4.62354 20.0154C2.28513 21.4545 0.712142 23.55 0.0768953 26.08C-0.0160678 26.4439 -0.0248605 26.8239 0.0511751 27.1917C0.127211 27.5594 0.286106 27.9054 0.515976 28.2036C0.734094 28.4813 1.01353 28.7057 1.33278 28.8595C1.65204 29.0133 2.00262 29.0925 2.35755 29.0909H12.5325C12.7042 29.0909 12.8705 29.0311 13.0023 28.9219C13.1342 28.8128 13.2232 28.6612 13.2539 28.4936C13.264 28.4363 13.2768 28.3791 13.2915 28.3227C14.0688 25.2263 15.8902 22.61 18.5815 20.7027C18.6805 20.6319 18.7602 20.5378 18.8132 20.4288C18.8662 20.3198 18.891 20.1994 18.8853 20.0786C18.8795 19.9577 18.8435 19.8401 18.7803 19.7365C18.7172 19.633 18.629 19.5467 18.5238 19.4854C18.3799 19.4018 18.2149 19.3136 18.027 19.2227Z" fill="#E0E0E0"/>
</svg>
