<svg width="27" height="30" viewBox="0 0 27 30" fill="none" xmlns="http://www.w3.org/2000/svg">
<path d="M0 26.5714V11.1429C0 10.6 0.119812 10.0857 0.359437 9.6C0.599062 9.11428 0.92925 8.71428 1.35 8.4L11.475 0.685714C12.0656 0.228572 12.7406 0 13.5 0C14.2594 0 14.9344 0.228572 15.525 0.685714L25.65 8.4C26.0719 8.71428 26.4026 9.11428 26.6422 9.6C26.8819 10.0857 27.0011 10.6 27 11.1429V26.5714C27 27.5143 26.6692 28.3217 26.0077 28.9937C25.3462 29.6657 24.552 30.0011 23.625 30H18.5625C18.0844 30 17.6839 29.8354 17.361 29.5063C17.0381 29.1771 16.8761 28.7703 16.875 28.2857V19.7143C16.875 19.2286 16.713 18.8217 16.389 18.4937C16.065 18.1657 15.6645 18.0011 15.1875 18H11.8125C11.3344 18 10.9339 18.1646 10.611 18.4937C10.2881 18.8229 10.1261 19.2297 10.125 19.7143V28.2857C10.125 28.7714 9.963 29.1789 9.639 29.508C9.315 29.8371 8.9145 30.0011 8.4375 30H3.375C2.44687 30 1.65262 29.6646 0.992249 28.9937C0.331875 28.3228 0.001125 27.5154 0 26.5714Z" fill="#E0E0E0"/>
</svg>
