<svg width="40" height="40" viewBox="0 0 40 40" fill="none" xmlns="http://www.w3.org/2000/svg">
<rect width="40" height="40" rx="20" fill="#D2D2DA"/>
<path d="M5.93272 22.416H8.62072V24H3.88072V15.576H5.93272V22.416ZM13.5835 24.084C12.7915 24.084 12.0635 23.9 11.3995 23.532C10.7435 23.164 10.2195 22.652 9.82747 21.996C9.44347 21.332 9.25147 20.588 9.25147 19.764C9.25147 18.94 9.44347 18.2 9.82747 17.544C10.2195 16.888 10.7435 16.376 11.3995 16.008C12.0635 15.64 12.7915 15.456 13.5835 15.456C14.3755 15.456 15.0995 15.64 15.7555 16.008C16.4195 16.376 16.9395 16.888 17.3155 17.544C17.6995 18.2 17.8915 18.94 17.8915 19.764C17.8915 20.588 17.6995 21.332 17.3155 21.996C16.9315 22.652 16.4115 23.164 15.7555 23.532C15.0995 23.9 14.3755 24.084 13.5835 24.084ZM13.5835 22.212C14.2555 22.212 14.7915 21.988 15.1915 21.54C15.5995 21.092 15.8035 20.5 15.8035 19.764C15.8035 19.02 15.5995 18.428 15.1915 17.988C14.7915 17.54 14.2555 17.316 13.5835 17.316C12.9035 17.316 12.3595 17.536 11.9515 17.976C11.5515 18.416 11.3515 19.012 11.3515 19.764C11.3515 20.508 11.5515 21.104 11.9515 21.552C12.3595 21.992 12.9035 22.212 13.5835 22.212ZM24.6251 18.24C24.4731 17.96 24.2531 17.748 23.9651 17.604C23.6851 17.452 23.3531 17.376 22.9691 17.376C22.3051 17.376 21.7731 17.596 21.3731 18.036C20.9731 18.468 20.7731 19.048 20.7731 19.776C20.7731 20.552 20.9811 21.16 21.3971 21.6C21.8211 22.032 22.4011 22.248 23.1371 22.248C23.6411 22.248 24.0651 22.12 24.4091 21.864C24.7611 21.608 25.0171 21.24 25.1771 20.76H22.5731V19.248H27.0371V21.156C26.8851 21.668 26.6251 22.144 26.2571 22.584C25.8971 23.024 25.4371 23.38 24.8771 23.652C24.3171 23.924 23.6851 24.06 22.9811 24.06C22.1491 24.06 21.4051 23.88 20.7491 23.52C20.1011 23.152 19.5931 22.644 19.2251 21.996C18.8651 21.348 18.6851 20.608 18.6851 19.776C18.6851 18.944 18.8651 18.204 19.2251 17.556C19.5931 16.9 20.1011 16.392 20.7491 16.032C21.3971 15.664 22.1371 15.48 22.9691 15.48C23.9771 15.48 24.8251 15.724 25.5131 16.212C26.2091 16.7 26.6691 17.376 26.8931 18.24H24.6251ZM32.1577 24.084C31.3657 24.084 30.6377 23.9 29.9737 23.532C29.3177 23.164 28.7937 22.652 28.4017 21.996C28.0177 21.332 27.8257 20.588 27.8257 19.764C27.8257 18.94 28.0177 18.2 28.4017 17.544C28.7937 16.888 29.3177 16.376 29.9737 16.008C30.6377 15.64 31.3657 15.456 32.1577 15.456C32.9497 15.456 33.6737 15.64 34.3297 16.008C34.9937 16.376 35.5137 16.888 35.8897 17.544C36.2737 18.2 36.4657 18.94 36.4657 19.764C36.4657 20.588 36.2737 21.332 35.8897 21.996C35.5057 22.652 34.9857 23.164 34.3297 23.532C33.6737 23.9 32.9497 24.084 32.1577 24.084ZM32.1577 22.212C32.8297 22.212 33.3657 21.988 33.7657 21.54C34.1737 21.092 34.3777 20.5 34.3777 19.764C34.3777 19.02 34.1737 18.428 33.7657 17.988C33.3657 17.54 32.8297 17.316 32.1577 17.316C31.4777 17.316 30.9337 17.536 30.5257 17.976C30.1257 18.416 29.9257 19.012 29.9257 19.764C29.9257 20.508 30.1257 21.104 30.5257 21.552C30.9337 21.992 31.4777 22.212 32.1577 22.212Z" fill="black"/>
</svg>
