<svg width="178" height="186" viewBox="0 0 178 186" fill="none" xmlns="http://www.w3.org/2000/svg">
<path d="M173.617 125.227L167.772 122.294C171.095 112.211 172.431 106.426 172.643 95.5734H178C177.809 107.34 176.655 113.809 173.617 125.227Z" fill="#D9D9D9"/>
<path d="M156.408 155.206L150.888 149.504C158.035 141.107 161.666 136.185 166.311 126.367L171.993 129.137C167.891 139.929 164.357 145.6 156.408 155.206Z" fill="#D9D9D9"/>
<path d="M126.374 178.016L122.64 168.892C133.764 164.101 139.32 160.652 147.804 152.925L153.486 158.465C144.315 167.445 138.346 171.704 126.374 178.016Z" fill="#D9D9D9"/>
<path d="M54.4548 167.263L49.7468 176.876C63.0308 182.603 70.6662 184.335 84.4888 185.837L84.9758 174.921C72.4597 173.667 65.7166 172.171 54.4548 167.263Z" fill="#D9D9D9"/>
<path d="M27.8301 147.548L21.0116 153.74C28.5561 163.364 34.3859 167.812 46.1752 174.921L50.7209 165.308C40.5443 159.302 35.3956 155.517 27.8301 147.548Z" fill="#D9D9D9"/>
<path d="M12.4073 119.85L3.47824 122.946C7.5058 134.444 11.1485 140.48 18.5764 150.97L25.3949 143.964C19.041 135.248 15.9559 130.1 12.4073 119.85Z" fill="#D9D9D9"/>
<path d="M8.02394 89.0562L0.0689925 87.9157C-0.24746 100.554 0.490678 107.255 2.99122 118.71L11.2709 115.94C8.65073 105.228 8.20392 99.3839 8.02394 89.0562Z" fill="#D9D9D9"/>
<path d="M16.3036 56.7959L10.1344 53.5373C4.41441 65.1785 2.6076 71.7944 0.718356 83.6795L8.6733 84.82C10.336 73.0704 11.8586 66.8427 16.3036 56.7959Z" fill="#D9D9D9"/>
<path d="M86.9237 22.4175C86.1123 22.2546 86.1123 21.6029 86.9237 21.1141L109.49 13.6193C114.434 11.0673 115.514 9.53522 108.841 6.28737C101.804 2.64273 97.9404 1.48678 91.145 0.421858C74.238 -1.02164 66.1331 0.93949 54.9419 11.0124L33.8369 25.1873L37.0838 29.0977L55.4289 17.3666C59.2816 25.5117 63.0329 26.9106 69.8777 29.0977C82.0999 29.5976 88.9996 29.283 101.373 27.9571C106.854 26.5607 107.322 25.5556 105.756 23.558C105.756 23.558 87.7351 22.5804 86.9237 22.4175Z" fill="#D9D9D9"/>
<path d="M131.731 19.8106L127.51 24.8615C134.551 29.574 138.22 32.5711 144.232 38.5476L151.375 32.8451C144.375 27.1221 140.217 24.132 131.731 19.8106Z" fill="#D9D9D9"/>
<path d="M153.973 35.7778L146.83 41.3175C151.07 46.813 153.29 50.0743 156.895 56.3071L165.986 51.5821C161.84 44.4376 159.227 40.9421 153.973 35.7778Z" fill="#D9D9D9"/>
<path d="M167.935 55.3295L158.681 60.2174C161.062 66.1437 162.091 69.4636 163.389 75.37C166.273 74.8491 167.782 74.5651 170.37 74.0666C172.132 81.2618 172.423 84.7186 173.292 91.1743H178C176.201 76.6265 174.931 68.5374 167.935 55.3295Z" fill="#D9D9D9"/>
<path d="M168.259 106.979L162.577 105.349C164.235 95.6266 164.871 90.0423 163.876 79.1174H168.259C169.71 90.2189 169.394 96.2711 168.259 106.979Z" fill="#D9D9D9"/>
<path d="M157.22 134.84L151.213 129.626C156.033 121.833 158.249 117.332 161.441 109.097L167.123 111.215C164.781 121.024 162.508 126.156 157.22 134.84Z" fill="#D9D9D9"/>
<path d="M99.587 157.976C90.3024 158.326 85.1017 158.473 76.0468 156.184L72.9622 169.055C83.5502 171.439 89.7784 171.582 101.21 170.522L99.587 157.976Z" fill="#D9D9D9"/>
<path d="M32.3758 126.367C29.8552 128.702 27.2698 130.335 22.7974 133.21C27.8224 141.806 31.433 146.036 39.1943 152.599L47.474 142.986C41.3835 137.716 37.9707 134.75 32.3758 126.367Z" fill="#D2D2D2"/>
<path d="M22.635 103.231L13.3813 105.556C14.2371 115.809 17.0531 120.54 21.3363 129.3L30.2653 123.323C26.5131 115.602 24.7083 111.225 22.635 103.231Z" fill="#D9D9D9"/>
<path d="M60.624 29.9123L53.3184 23.0692C42.9815 29.3176 37.5305 33.3228 29.6159 43.1097L37.4085 48.3235C46.0286 37.6985 51.1287 33.7902 60.624 29.9123Z" fill="#D9D9D9"/>
<path d="M34.4863 51.5821L27.0184 47.02C20.608 55.627 18.1118 60.7381 15.8165 70.3191L24.7456 72.7631C26.595 64.7458 28.2795 60.1666 34.4863 51.5821Z" fill="#D9D9D9"/>
<path d="M23.6091 76.5105L14.5178 74.2295C12.3669 81.4941 11.7802 87.039 12.5696 101.276L22.148 99.4838C21.6153 90.2034 21.7316 85.1162 23.6091 76.5105Z" fill="#D9D9D9"/>
<path d="M50.8832 145.43L42.4412 155.206C51.6068 161.973 57.476 164.718 68.9036 168.241L72.1505 155.206C63.4811 152.468 58.7538 150.535 50.8832 145.43Z" fill="#D9D9D9"/>
<path d="M105.431 169.87L103.321 157.65C112.781 156.164 117.452 154.454 125.238 150.644L131.407 159.931C122.362 165.473 116.795 167.833 105.431 169.87Z" fill="#D9D9D9"/>
<path d="M148.291 132.885C142.491 139.65 138.423 143.111 129.296 148.526L135.141 157.976C144.81 151.197 149.122 146.872 155.272 138.424L148.291 132.885Z" fill="#D9D9D9"/>
<path d="M115.984 14.7598C115.108 16.2901 114.501 17.0917 113.386 18.5072C117.565 19.9774 119.876 20.8698 123.776 22.9063L127.673 18.1813C123.237 16.5634 120.71 15.7443 115.984 14.7598Z" fill="#D9D9D9"/>
<path d="M30.4276 28.4459C22.5276 35.4249 18.7254 40.1106 12.8943 49.6269L18.5764 52.3968C23.6416 44.2259 26.8426 39.7585 33.8369 32.1933L30.4276 28.4459Z" fill="#D9D9D9"/>
<path d="M88.7098 186V174.921C101.032 175.133 107.578 174.026 118.744 170.359L122.315 179.646C110.907 183.821 103.594 185.262 88.7098 186Z" fill="#D9D9D9"/>
<path d="M173.617 125.227L167.772 122.294C171.095 112.211 172.431 106.426 172.643 95.5734H178C177.809 107.34 176.655 113.809 173.617 125.227Z" fill="#D9D9D9"/>
<path d="M156.408 155.206L150.888 149.504C158.035 141.107 161.666 136.185 166.311 126.367L171.993 129.137C167.891 139.929 164.357 145.6 156.408 155.206Z" fill="#D9D9D9"/>
<path d="M126.374 178.016L122.64 168.892C133.764 164.101 139.32 160.652 147.804 152.925L153.486 158.465C144.315 167.445 138.346 171.704 126.374 178.016Z" fill="#D9D9D9"/>
<path d="M54.4548 167.263L49.7468 176.876C63.0308 182.603 70.6662 184.335 84.4888 185.837L84.9758 174.921C72.4597 173.667 65.7166 172.171 54.4548 167.263Z" fill="#D9D9D9"/>
<path d="M27.8301 147.548L21.0116 153.74C28.5561 163.364 34.3859 167.812 46.1752 174.921L50.7209 165.308C40.5443 159.302 35.3956 155.517 27.8301 147.548Z" fill="#D9D9D9"/>
<path d="M12.4073 119.85L3.47824 122.946C7.5058 134.444 11.1485 140.48 18.5764 150.97L25.3949 143.964C19.041 135.248 15.9559 130.1 12.4073 119.85Z" fill="#D9D9D9"/>
<path d="M8.02394 89.0562L0.0689925 87.9157C-0.24746 100.554 0.490678 107.255 2.99122 118.71L11.2709 115.94C8.65073 105.228 8.20392 99.3839 8.02394 89.0562Z" fill="#D9D9D9"/>
<path d="M16.3036 56.7959L10.1344 53.5373C4.41441 65.1785 2.6076 71.7944 0.718356 83.6795L8.6733 84.82C10.336 73.0704 11.8586 66.8427 16.3036 56.7959Z" fill="#D9D9D9"/>
<path d="M86.9237 22.4175C86.1123 22.2546 86.1123 21.6029 86.9237 21.1141L109.49 13.6193C114.434 11.0673 115.514 9.53522 108.841 6.28737C101.804 2.64273 97.9404 1.48678 91.145 0.421858C74.238 -1.02164 66.1331 0.93949 54.9419 11.0124L33.8369 25.1873L37.0838 29.0977L55.4289 17.3666C59.2816 25.5117 63.0329 26.9106 69.8777 29.0977C82.0999 29.5976 88.9996 29.283 101.373 27.9571C106.854 26.5607 107.322 25.5556 105.756 23.558C105.756 23.558 87.7351 22.5804 86.9237 22.4175Z" fill="#D9D9D9"/>
<path d="M131.731 19.8106L127.51 24.8615C134.551 29.574 138.22 32.5711 144.232 38.5476L151.375 32.8451C144.375 27.1221 140.217 24.132 131.731 19.8106Z" fill="#D9D9D9"/>
<path d="M153.973 35.7778L146.83 41.3175C151.07 46.813 153.29 50.0743 156.895 56.3071L165.986 51.5821C161.84 44.4376 159.227 40.9421 153.973 35.7778Z" fill="#D9D9D9"/>
<path d="M167.935 55.3295L158.681 60.2174C161.062 66.1437 162.091 69.4636 163.389 75.37C166.273 74.8491 167.782 74.5651 170.37 74.0666C172.132 81.2618 172.423 84.7186 173.292 91.1743H178C176.201 76.6265 174.931 68.5374 167.935 55.3295Z" fill="#D9D9D9"/>
<path d="M168.259 106.979L162.577 105.349C164.235 95.6266 164.871 90.0423 163.876 79.1174H168.259C169.71 90.2189 169.394 96.2711 168.259 106.979Z" fill="#D9D9D9"/>
<path d="M157.22 134.84L151.213 129.626C156.033 121.833 158.249 117.332 161.441 109.097L167.123 111.215C164.781 121.024 162.508 126.156 157.22 134.84Z" fill="#D9D9D9"/>
<path d="M99.587 157.976C90.3024 158.326 85.1017 158.473 76.0468 156.184L72.9622 169.055C83.5502 171.439 89.7784 171.582 101.21 170.522L99.587 157.976Z" fill="#D9D9D9"/>
<path d="M32.3758 126.367C29.8552 128.702 27.2698 130.335 22.7974 133.21C27.8224 141.806 31.433 146.036 39.1943 152.599L47.474 142.986C41.3835 137.716 37.9707 134.75 32.3758 126.367Z" fill="#D9D9D9"/>
<path d="M22.635 103.231L13.3813 105.556C14.2371 115.809 17.0531 120.54 21.3363 129.3L30.2653 123.323C26.5131 115.602 24.7083 111.225 22.635 103.231Z" fill="#D9D9D9"/>
<path d="M60.624 29.9123L53.3184 23.0692C42.9815 29.3176 37.5305 33.3228 29.6159 43.1097L37.4085 48.3235C46.0286 37.6985 51.1287 33.7902 60.624 29.9123Z" fill="#D9D9D9"/>
<path d="M34.4863 51.5821L27.0184 47.02C20.608 55.627 18.1118 60.7381 15.8165 70.3191L24.7456 72.7631C26.595 64.7458 28.2795 60.1666 34.4863 51.5821Z" fill="#D9D9D9"/>
<path d="M23.6091 76.5105L14.5178 74.2295C12.3669 81.4941 11.7802 87.039 12.5696 101.276L22.148 99.4838C21.6153 90.2034 21.7316 85.1162 23.6091 76.5105Z" fill="#D9D9D9"/>
<path d="M50.8832 145.43L42.4412 155.206C51.6068 161.973 57.476 164.718 68.9036 168.241L72.1505 155.206C63.4811 152.468 58.7538 150.535 50.8832 145.43Z" fill="#D9D9D9"/>
<path d="M105.431 169.87L103.321 157.65C112.781 156.164 117.452 154.454 125.238 150.644L131.407 159.931C122.362 165.473 116.795 167.833 105.431 169.87Z" fill="#D9D9D9"/>
<path d="M148.291 132.885C142.491 139.65 138.423 143.111 129.296 148.526L135.141 157.976C144.81 151.197 149.122 146.872 155.272 138.424L148.291 132.885Z" fill="#D9D9D9"/>
<path d="M115.984 14.7598C115.108 16.2901 114.501 17.0917 113.386 18.5072C117.565 19.9774 119.876 20.8698 123.776 22.9063L127.673 18.1813C123.237 16.5634 120.71 15.7443 115.984 14.7598Z" fill="#D9D9D9"/>
<path d="M30.4276 28.4459C22.5276 35.4249 18.7254 40.1106 12.8943 49.6269L18.5764 52.3968C23.6416 44.2259 26.8426 39.7585 33.8369 32.1933L30.4276 28.4459Z" fill="#D9D9D9"/>
<path d="M88.7098 186V174.921C101.032 175.133 107.578 174.026 118.744 170.359L122.315 179.646C110.907 183.821 103.594 185.262 88.7098 186Z" fill="#D9D9D9"/>
<path d="M67.9612 82.7688C67.9612 83.3662 67.8151 83.9148 67.5229 84.4144C67.2307 84.9032 66.841 85.2943 66.354 85.5875C65.867 85.8808 65.3204 86.0275 64.7143 86.0275H54.8437V84.3981H64.7143C65.1689 84.3981 65.5531 84.2406 65.8669 83.9256C66.1808 83.5998 66.3377 83.2142 66.3377 82.7688C66.3377 82.3235 66.1808 81.9433 65.8669 81.6283C65.5531 81.3025 65.1689 81.1395 64.7143 81.1395H58.0906C57.4953 81.1395 56.9487 80.9929 56.4509 80.6996C55.9638 80.4063 55.5742 80.0153 55.282 79.5265C54.9898 79.0269 54.8437 78.4783 54.8437 77.8809C54.8437 77.2835 54.9898 76.7404 55.282 76.2516C55.5742 75.7519 55.9638 75.3555 56.4509 75.0622C56.9487 74.7689 57.4953 74.6223 58.0906 74.6223H67.1495V76.2516H58.0906C57.6468 76.2516 57.2626 76.4145 56.9379 76.7404C56.6241 77.0554 56.4671 77.4356 56.4671 77.8809C56.4671 78.3263 56.6241 78.7119 56.9379 79.0377C57.2626 79.3527 57.6468 79.5102 58.0906 79.5102H64.7143C65.3204 79.5102 65.867 79.6569 66.354 79.9501C66.841 80.2434 67.2307 80.6399 67.5229 81.1395C67.8151 81.6283 67.9612 82.1714 67.9612 82.7688Z" fill="#D9D9D9"/>
<path d="M82.7777 86.0275H81.1542V82.7688H72.0791V81.1395H81.1542V76.2516H75.326C74.59 76.2516 73.9136 76.4363 73.2967 76.8056C72.6798 77.164 72.1873 77.6528 71.8193 78.2719C71.4622 78.8911 71.2836 79.5754 71.2836 80.3249V86.0275H69.6601V80.3249C69.6601 79.5428 69.8062 78.8096 70.0985 78.1253C70.3907 77.4301 70.7966 76.8219 71.3161 76.3005C71.8356 75.7682 72.4362 75.3555 73.1181 75.0622C73.8108 74.7689 74.5467 74.6223 75.326 74.6223H82.7777V86.0275Z" fill="#D9D9D9"/>
<path d="M97.4029 86.0275H90.0811C89.291 86.0275 88.5767 85.8808 87.9381 85.5875C87.2995 85.2943 86.7476 84.8869 86.2822 84.3655C85.8276 83.8442 85.4759 83.2413 85.2269 82.557C84.978 81.8619 84.8535 81.1178 84.8535 80.3249C84.8535 79.5428 84.978 78.8096 85.2269 78.1253C85.4759 77.4301 85.8276 76.8219 86.2822 76.3005C86.7476 75.7682 87.2995 75.3555 87.9381 75.0622C88.5767 74.7689 89.291 74.6223 90.0811 74.6223H97.4029V76.2516H90.0811C89.3343 76.2516 88.6903 76.4363 88.1492 76.8056C87.6188 77.164 87.2076 77.6528 86.9153 78.2719C86.6231 78.8911 86.477 79.5754 86.477 80.3249C86.477 81.0743 86.6231 81.7587 86.9153 82.3778C87.2076 82.9861 87.6188 83.4749 88.1492 83.8442C88.6903 84.2135 89.3343 84.3981 90.0811 84.3981H95.7794V81.1395H88.896V79.5102H97.4029V86.0275Z" fill="#D9D9D9"/>
<path d="M101.443 86.0275H99.8192V74.6223H100.631C101.421 74.6223 102.276 74.7744 103.196 75.0785C104.127 75.3826 105.058 75.8117 105.988 76.3656C106.919 76.9196 107.796 77.5822 108.618 78.3534C109.452 79.1137 110.166 79.961 110.761 80.8951V74.6223H112.385V86.0275H110.761C110.761 85.0281 110.556 84.0723 110.144 83.1599C109.744 82.2366 109.208 81.3894 108.537 80.6181C107.866 79.8361 107.119 79.1463 106.297 78.5489C105.485 77.9407 104.657 77.4464 103.813 77.0663C102.969 76.6752 102.179 76.4254 101.443 76.3168V86.0275Z" fill="#D9D9D9"/>
<path d="M128.041 86.0275H126.418V82.7688H117.342V81.1395H126.418V76.2516H120.589C119.853 76.2516 119.177 76.4363 118.56 76.8056C117.943 77.164 117.451 77.6528 117.083 78.2719C116.726 78.8911 116.547 79.5754 116.547 80.3249V86.0275H114.924V80.3249C114.924 79.5428 115.07 78.8096 115.362 78.1253C115.654 77.4301 116.06 76.8219 116.579 76.3005C117.099 75.7682 117.7 75.3555 118.382 75.0622C119.074 74.7689 119.81 74.6223 120.589 74.6223H128.041V86.0275Z" fill="#D9D9D9"/>
<path d="M53.8308 102.321C53.8308 102.918 53.6847 103.466 53.3925 103.966C53.1003 104.455 52.7052 104.846 52.2074 105.139C51.7203 105.432 51.1792 105.579 50.5839 105.579H42.8887V103.95H50.5839C51.0277 103.95 51.4065 103.792 51.7203 103.477C52.045 103.151 52.2074 102.766 52.2074 102.321C52.2074 101.875 52.045 101.495 51.7203 101.18C51.4065 100.854 51.0277 100.691 50.5839 100.691H42.8887V99.0619H48.9605C49.4042 99.0619 49.783 98.9044 50.0969 98.5894C50.4216 98.2635 50.5839 97.8779 50.5839 97.4326C50.5839 96.9873 50.4216 96.6071 50.0969 96.2921C49.783 95.9662 49.4042 95.8033 48.9605 95.8033H42.077V105.579H40.4535V94.174H48.9605C49.5557 94.174 50.0969 94.3206 50.5839 94.6139C51.0818 94.9072 51.4768 95.3036 51.769 95.8033C52.0613 96.2921 52.2074 96.8352 52.2074 97.4326C52.2074 97.7693 52.1587 98.0952 52.0613 98.4102C51.9639 98.7143 51.8286 98.9967 51.6554 99.2574C52.294 99.4747 52.8135 99.8657 53.2139 100.431C53.6252 100.984 53.8308 101.614 53.8308 102.321Z" fill="#D9D9D9"/>
<path d="M68.8544 105.579H66.6628L63.2535 102.321H58.2695V100.708H64.7958C65.2503 100.708 65.6616 100.599 66.0296 100.382C66.3976 100.154 66.6898 99.8548 66.9063 99.4855C67.1227 99.1054 67.231 98.6926 67.231 98.2473C67.231 97.7911 67.1227 97.3783 66.9063 97.009C66.6898 96.6397 66.3976 96.3464 66.0296 96.1292C65.6616 95.9119 65.2503 95.8033 64.7958 95.8033H57.3603V105.579H55.7369V94.174H64.7958C65.5426 94.174 66.2244 94.3586 66.8413 94.728C67.4583 95.0864 67.9453 95.5752 68.3025 96.1943C68.6704 96.8135 68.8544 97.4978 68.8544 98.2473C68.8544 98.9207 68.7029 99.5453 68.3999 100.121C68.1076 100.697 67.7018 101.175 67.1823 101.555C66.6736 101.924 66.0945 102.163 65.4452 102.272L68.8544 105.579Z" fill="#D9D9D9"/>
<path d="M83.101 94.174L83.0848 99.8766C83.0848 100.669 82.9387 101.414 82.6465 102.109C82.3542 102.793 81.9484 103.396 81.4289 103.917C80.9094 104.439 80.3033 104.846 79.6106 105.139C78.9287 105.432 78.1982 105.579 77.4189 105.579H76.2176C75.4383 105.579 74.7023 105.432 74.0097 105.139C73.3278 104.846 72.7271 104.439 72.2076 103.917C71.6881 103.385 71.2823 102.777 70.99 102.092C70.6978 101.397 70.5517 100.659 70.5517 99.8766V94.174H72.1752V99.8766C72.1752 100.626 72.3537 101.31 72.7109 101.929C73.0789 102.538 73.5713 103.027 74.1882 103.396C74.8052 103.765 75.4816 103.95 76.2176 103.95H77.4189C78.1657 103.95 78.8422 103.765 79.4482 103.396C80.0652 103.027 80.5522 102.538 80.9094 101.929C81.2774 101.31 81.4613 100.626 81.4613 99.8766V94.174H83.101Z" fill="#D9D9D9"/>
<path d="M87.055 105.579H85.4316V94.174H86.2433C87.0334 94.174 87.8884 94.3261 88.8084 94.6302C89.7392 94.9343 90.6699 95.3634 91.6007 95.9173C92.5315 96.4713 93.4082 97.1339 94.2307 97.9051C95.0641 98.6655 95.7784 99.5127 96.3737 100.447V94.174H97.9972V105.579H96.3737C96.3737 104.58 96.1681 103.624 95.7568 102.712C95.3563 101.788 94.8206 100.941 94.1496 100.17C93.4785 99.3878 92.7317 98.698 91.9092 98.1006C91.0975 97.4923 90.2695 96.9981 89.4253 96.618C88.5811 96.2269 87.791 95.9771 87.055 95.8685V105.579Z" fill="#D9D9D9"/>
<path d="M102.354 105.579H100.731V94.174H101.542C102.333 94.174 103.188 94.3261 104.108 94.6302C105.038 94.9343 105.969 95.3634 106.9 95.9173C107.831 96.4713 108.707 97.1339 109.53 97.9051C110.363 98.6655 111.078 99.5127 111.673 100.447V94.174H113.296V105.579H111.673C111.673 104.58 111.467 103.624 111.056 102.712C110.656 101.788 110.12 100.941 109.449 100.17C108.778 99.3878 108.031 98.698 107.208 98.1006C106.397 97.4923 105.569 96.9981 104.724 96.618C103.88 96.2269 103.09 95.9771 102.354 95.8685V105.579Z" fill="#D9D9D9"/>
<path d="M128.206 94.174L128.19 99.8766C128.19 100.669 128.044 101.414 127.751 102.109C127.459 102.793 127.053 103.396 126.534 103.917C126.014 104.439 125.408 104.846 124.715 105.139C124.034 105.432 123.303 105.579 122.524 105.579H121.322C120.543 105.579 119.807 105.432 119.115 105.139C118.433 104.846 117.832 104.439 117.312 103.917C116.793 103.385 116.387 102.777 116.095 102.092C115.803 101.397 115.657 100.659 115.657 99.8766V94.174H117.28V99.8766C117.28 100.626 117.459 101.31 117.816 101.929C118.184 102.538 118.676 103.027 119.293 103.396C119.91 103.765 120.586 103.95 121.322 103.95H122.524C123.271 103.95 123.947 103.765 124.553 103.396C125.17 103.027 125.657 102.538 126.014 101.929C126.382 101.31 126.566 100.626 126.566 99.8766V94.174H128.206Z" fill="#D9D9D9"/>
<path d="M143.654 105.579H141.462L138.053 102.321H133.069V100.708H139.595C140.05 100.708 140.461 100.599 140.829 100.382C141.197 100.154 141.489 99.8548 141.706 99.4855C141.922 99.1054 142.031 98.6926 142.031 98.2473C142.031 97.7911 141.922 97.3783 141.706 97.009C141.489 96.6397 141.197 96.3464 140.829 96.1292C140.461 95.9119 140.05 95.8033 139.595 95.8033H132.16V105.579H130.536V94.174H139.595C140.342 94.174 141.024 94.3586 141.641 94.728C142.258 95.0864 142.745 95.5752 143.102 96.1943C143.47 96.8135 143.654 97.4978 143.654 98.2473C143.654 98.9207 143.502 99.5453 143.199 100.121C142.907 100.697 142.501 101.175 141.982 101.555C141.473 101.924 140.894 102.163 140.245 102.272L143.654 105.579Z" fill="#D9D9D9"/>
<path d="M87.411 9.05718C87.411 10.317 84.7217 11.3382 81.4042 11.3382C78.0868 11.3382 75.3974 10.317 75.3974 9.05718C75.3974 7.7974 78.0868 6.77615 81.4042 6.77615C84.7217 6.77615 87.411 7.7974 87.411 9.05718Z" fill="#121212"/>
</svg>
