<svg width="29" height="20" viewBox="0 0 29 20" fill="none" xmlns="http://www.w3.org/2000/svg">
<path d="M28.6414 17.328C28.6573 17.0104 28.8025 16.1235 28.798 15.9512C28.7821 13.7419 27.3803 6.46075 27.1557 4.68696L27.1421 4.57809C27.065 3.88173 27.0355 3.05382 26.7792 2.39602C26.5206 1.73369 25.6836 1.50232 25.0803 1.26869C22.5829 0.316024 19.7635 -0.486941 17.1141 0.352316C16.0798 0.678946 15.1476 1.26189 14.399 2.18054C13.6528 1.26189 12.7182 0.678946 11.6862 0.352316C9.03686 -0.486941 6.21741 0.316024 3.72005 1.26869C3.11669 1.50006 2.27517 1.73142 2.01886 2.39602C1.76254 3.05382 1.73305 3.87946 1.65593 4.57809L1.64232 4.68696C1.41777 6.46075 0.0182486 13.7419 0.000102527 15.9512C-0.004434 16.1258 0.143003 17.0104 0.158881 17.328C0.181563 17.7862 0.127125 18.2466 0.149808 18.7026C0.104443 18.8613 0.145271 19.011 0.242807 19.129C0.306318 19.2515 0.403853 19.3263 0.510462 19.3649C0.753166 19.6325 1.19321 19.4556 1.48128 19.3649C4.06256 18.5302 6.90016 18.5619 9.5631 18.9158C10.0349 18.977 10.5044 19.0541 10.9717 19.1449C11.4571 19.2401 11.9176 19.4125 12.3825 19.5781C12.7659 19.7142 13.1674 19.8276 13.5711 19.9047C13.8615 19.9705 14.145 19.9977 14.2743 20C14.3196 20 14.3605 19.9955 14.4036 19.9932C14.4467 19.9932 14.4898 20 14.5329 20C14.6621 20 14.9457 19.9728 15.236 19.9047C15.6398 19.8276 16.0413 19.7142 16.4246 19.5781C16.8896 19.4125 17.3523 19.2401 17.8377 19.1449C18.305 19.0541 18.7745 18.977 19.2463 18.9158C21.907 18.5619 24.7468 18.5302 27.3281 19.3649C27.6139 19.4579 28.054 19.6325 28.2967 19.3649C28.4055 19.3263 28.5008 19.2515 28.5643 19.129C28.6619 19.011 28.7027 18.8613 28.6573 18.7026C28.6732 18.2444 28.6188 17.7862 28.6414 17.328ZM8.12729 14.3634C7.08615 14.3293 6.04275 14.3815 5.01296 14.5267C4.12834 14.6514 3.25506 14.8488 2.40446 15.1142C2.19805 15.1777 1.96669 15.2298 1.77162 15.3274C1.64686 15.3909 1.54479 15.4635 1.43364 15.3251C1.2794 15.1391 1.38147 14.8011 1.40642 14.5879C1.45633 14.1592 1.51303 13.7328 1.57881 13.3064C1.86461 11.4078 2.24795 9.52744 2.5088 7.62436C2.62221 6.78284 2.71521 5.93451 2.82409 5.09298C2.87853 4.65975 2.93977 4.22651 3.01009 3.79554C3.09628 3.26703 3.11443 2.89504 3.60891 2.57521C4.45043 2.03083 5.45981 1.79039 6.42382 1.55676C7.46268 1.30499 8.49928 1.09177 9.57444 1.1326C10.3275 1.16209 11.0601 1.36169 11.7247 1.71327C12.0468 1.88339 12.3553 2.083 12.6479 2.30302C12.9383 2.51851 13.2921 2.74987 13.5235 3.0266C13.7299 3.27157 13.7957 3.49386 13.8161 3.7479C13.6732 6.99832 13.6959 15.0575 13.7208 15.6291C13.7231 15.6767 13.7276 15.7243 13.7299 15.772C13.7186 15.8332 13.6845 15.8808 13.5847 15.8808C13.4645 15.8831 13.3329 15.8037 13.2286 15.7493C13.0131 15.6359 12.7954 15.527 12.5776 15.4249C11.169 14.7603 9.68558 14.4133 8.12729 14.3634ZM27.3599 15.3228C27.2465 15.4612 27.1467 15.3886 27.0219 15.3251C26.8291 15.2276 26.5977 15.1754 26.3891 15.1119C25.5385 14.8465 24.6652 14.6514 23.7806 14.5244C22.7508 14.3792 21.7051 14.3293 20.664 14.3611C19.1079 14.411 17.6245 14.758 16.2136 15.4226C15.9959 15.527 15.7781 15.6359 15.5626 15.747C15.4583 15.8014 15.3267 15.8786 15.2043 15.8786C15.1045 15.8786 15.0704 15.8309 15.0591 15.7697C15.0614 15.7221 15.0682 15.6744 15.0682 15.6268C15.0931 15.0552 15.1181 6.99606 14.9729 3.74564C14.9933 3.49159 15.0591 3.2693 15.2632 3.02433C15.4991 2.7476 15.8507 2.51397 16.1411 2.30075C16.4337 2.083 16.7399 1.88112 17.0642 1.71101C17.7311 1.35942 18.4615 1.15982 19.2146 1.13033C20.2897 1.08723 21.3263 1.30272 22.3652 1.55449C23.3292 1.78813 24.3386 2.02629 25.1823 2.57294C25.6768 2.89277 25.695 3.26476 25.7812 3.79327C25.8515 4.22424 25.9127 4.65748 25.9672 5.09072C26.0738 5.93451 26.1668 6.78057 26.2825 7.6221C26.5433 9.5229 26.9289 11.4056 27.2124 13.3041C27.2737 13.7305 27.3349 14.157 27.3848 14.5857C27.4121 14.7989 27.5141 15.1368 27.3599 15.3228Z" fill="#E0E0E0"/>
<path d="M11.9174 3.67076C9.76937 2.66365 6.87507 2.60921 4.71341 3.64354C4.14181 3.918 4.64083 4.74592 5.2079 4.4896C7.04746 3.65035 9.56976 3.77737 11.3549 4.6325C11.9991 4.93872 12.5639 3.97471 11.9174 3.67076ZM11.8494 6.32463C9.56296 5.32206 6.62329 4.94326 4.31647 6.13182C3.81518 6.39041 4.25523 7.0981 4.75197 6.87581C6.86826 5.92995 9.40418 6.48567 11.4615 7.24781C11.9945 7.44742 12.3733 6.55372 11.8494 6.32463ZM11.7291 8.97169C11.4864 8.76755 11.1485 8.67228 10.8559 8.56567C8.73277 7.78992 5.91333 7.75817 3.87416 8.80157C3.42504 9.03066 3.80384 9.68392 4.24615 9.5569C5.3576 9.24161 6.40327 9.06696 7.55781 9.05561C8.46285 9.04654 9.28396 9.14181 10.1482 9.40039C10.409 9.47751 10.6585 9.507 10.908 9.62495C11.0872 9.70887 11.3095 9.81548 11.5069 9.84043C11.9378 9.8926 12.0263 9.25976 11.7836 9.01932L11.7291 8.97169ZM11.5046 11.528C9.05033 10.3712 6.29666 10.5844 3.81291 11.46C3.30029 11.6414 3.54526 12.4308 4.06696 12.2675C5.23511 11.9 6.2082 11.6256 7.44894 11.6097C8.64204 11.5961 9.93722 11.9862 11.0305 12.4149C11.618 12.6485 12.1011 11.8093 11.5046 11.528ZM17.4384 4.63024C19.2235 3.7751 21.7458 3.65035 23.5854 4.48733C24.1502 4.74592 24.6514 3.91573 24.0798 3.64127C21.9205 2.60695 19.0261 2.66138 16.8781 3.66849C16.2294 3.97471 16.7919 4.93872 17.4384 4.63024ZM17.334 7.24781C19.3913 6.48567 21.9273 5.92995 24.0435 6.87581C24.5403 7.0981 24.9803 6.39041 24.479 6.13182C22.17 4.94326 19.2303 5.32206 16.9462 6.32463C16.4222 6.55372 16.7987 7.44742 17.334 7.24781ZM17.2864 9.8427C17.486 9.81775 17.7038 9.71114 17.8829 9.62722C18.1347 9.50927 18.3842 9.47978 18.6451 9.40266C19.5093 9.14634 20.3304 9.05108 21.2354 9.05788C22.39 9.06696 23.4379 9.24161 24.5494 9.55917C24.9894 9.68619 25.3682 9.03066 24.9214 8.80384C22.8822 7.76044 20.0605 7.79219 17.9397 8.56794C17.647 8.67455 17.3091 8.76754 17.0641 8.97396L17.0097 9.02386C16.7647 9.25976 16.8577 9.89487 17.2864 9.8427ZM24.9826 11.46C22.4989 10.5844 19.7452 10.3712 17.2909 11.528C16.6944 11.8093 17.1775 12.6485 17.7673 12.4149C18.8583 11.9862 20.1512 11.5961 21.3466 11.6097C22.5851 11.6256 23.5604 11.9 24.7263 12.2675C25.2503 12.4331 25.4952 11.6414 24.9826 11.46Z" fill="#E0E0E0"/>
</svg>
