<svg width="14" height="14" viewBox="0 0 14 14" fill="none" xmlns="http://www.w3.org/2000/svg">
<path d="M13.5305 12.4694L10.5624 9.50004C11.4524 8.34033 11.8678 6.88553 11.7246 5.43075C11.5814 3.97597 10.8901 2.63014 9.79107 1.66628C8.69203 0.702417 7.26751 0.192694 5.80648 0.240511C4.34544 0.288327 2.9573 0.890102 1.92364 1.92376C0.88998 2.95742 0.288205 4.34557 0.240389 5.8066C0.192572 7.26764 0.702295 8.69215 1.66616 9.79119C2.63002 10.8902 3.97585 11.5815 5.43063 11.7247C6.88541 11.868 8.34021 11.4525 9.49991 10.5625L12.4705 13.5338C12.5403 13.6036 12.6231 13.6589 12.7143 13.6966C12.8054 13.7344 12.9031 13.7538 13.0018 13.7538C13.1005 13.7538 13.1981 13.7344 13.2893 13.6966C13.3805 13.6589 13.4633 13.6036 13.533 13.5338C13.6028 13.464 13.6581 13.3812 13.6959 13.29C13.7337 13.1989 13.7531 13.1012 13.7531 13.0025C13.7531 12.9039 13.7337 12.8062 13.6959 12.715C13.6581 12.6239 13.6028 12.5411 13.533 12.4713L13.5305 12.4694ZM1.74991 6.00004C1.74991 5.15947 1.99917 4.33777 2.46617 3.63886C2.93316 2.93995 3.59692 2.39522 4.37351 2.07355C5.1501 1.75188 6.00463 1.66771 6.82905 1.8317C7.65347 1.99569 8.41075 2.40046 9.00512 2.99483C9.59949 3.58921 10.0043 4.34648 10.1683 5.1709C10.3322 5.99532 10.2481 6.84986 9.9264 7.62644C9.60473 8.40303 9.06 9.06679 8.36109 9.53378C7.66218 10.0008 6.84049 10.25 5.99991 10.25C4.8731 10.2489 3.79277 9.80074 2.99599 9.00396C2.19921 8.20718 1.75107 7.12685 1.74991 6.00004Z" fill="#DE8417"/>
</svg>
