<svg width="30" height="30" viewBox="0 0 30 30" fill="none" xmlns="http://www.w3.org/2000/svg">
<path d="M13.3441 3.00942e-08C15.8498 -0.000168211 18.3049 0.705081 20.4285 2.03504C22.5521 3.36499 24.2583 5.26592 25.352 7.52028C26.4456 9.77463 26.8824 12.2913 26.6125 14.7824C26.3426 17.2734 25.3767 19.6381 23.8256 21.6059L29.5593 27.3394C29.8453 27.6355 30.0035 28.032 29.9999 28.4437C29.9964 28.8553 29.8312 29.2491 29.5402 29.5402C29.2491 29.8313 28.8553 29.9964 28.4436 29.9999C28.032 30.0035 27.6354 29.8453 27.3393 29.5593L21.6055 23.8258C19.9342 25.1429 17.972 26.0413 15.8828 26.4459C13.7936 26.8506 11.638 26.7497 9.59566 26.1518C7.55336 25.554 5.68365 24.4764 4.14253 23.009C2.60141 21.5416 1.43356 19.7269 0.736428 17.7164C0.0392919 15.7059 -0.166919 13.5578 0.134999 11.4514C0.436917 9.34497 1.23821 7.3413 2.47202 5.60753C3.70584 3.87376 5.3364 2.46017 7.22766 1.48471C9.11892 0.50924 11.216 0.000181318 13.3441 3.00942e-08ZM13.3441 3.13993C10.6375 3.13993 8.04177 4.21507 6.12793 6.12884C4.2141 8.0426 3.13891 10.6382 3.13891 13.3447C3.13891 16.0512 4.2141 18.6468 6.12793 20.5606C8.04177 22.4743 10.6375 23.5495 13.3441 23.5495C16.0506 23.5495 18.6464 22.4743 20.5602 20.5606C22.474 18.6468 23.5492 16.0512 23.5492 13.3447C23.5492 10.6382 22.474 8.0426 20.5602 6.12884C18.6464 4.21507 16.0506 3.13993 13.3441 3.13993ZM13.3441 4.70989C15.6342 4.70989 17.8306 5.61963 19.45 7.23897C21.0694 8.85831 21.9792 11.0546 21.9792 13.3447C21.9792 15.6348 21.0694 17.8311 19.45 19.4504C17.8306 21.0698 15.6342 21.9795 13.3441 21.9795C11.0539 21.9795 8.85751 21.0698 7.23811 19.4504C5.61871 17.8311 4.70894 15.6348 4.70894 13.3447C4.70894 11.0546 5.61871 8.85831 7.23811 7.23897C8.85751 5.61963 11.0539 4.70989 13.3441 4.70989Z" fill="#E0E0E0"/>
</svg>
