<svg width="80" height="17" viewBox="0 0 80 17" fill="none" xmlns="http://www.w3.org/2000/svg">
<path d="M8 0.5L9.79611 6.02786H15.6085L10.9062 9.44427L12.7023 14.9721L8 11.5557L3.29772 14.9721L5.09383 9.44427L0.391548 6.02786H6.20389L8 0.5Z" fill="#DE8417"/>
<path d="M24 0.5L25.7961 6.02786H31.6085L26.9062 9.44427L28.7023 14.9721L24 11.5557L19.2977 14.9721L21.0938 9.44427L16.3915 6.02786H22.2039L24 0.5Z" fill="#DE8417"/>
<path d="M40 0.5L41.7961 6.02786H47.6085L42.9062 9.44427L44.7023 14.9721L40 11.5557L35.2977 14.9721L37.0938 9.44427L32.3915 6.02786H38.2039L40 0.5Z" fill="#DE8417"/>
<path d="M56 0.5L57.7961 6.02786H63.6085L58.9062 9.44427L60.7023 14.9721L56 11.5557L51.2977 14.9721L53.0938 9.44427L48.3915 6.02786H54.2039L56 0.5Z" fill="#DE8417"/>
<path d="M72 0.5L73.7961 6.02786H79.6085L74.9062 9.44427L76.7023 14.9721L72 11.5557L67.2977 14.9721L69.0938 9.44427L64.3915 6.02786H70.2039L72 0.5Z" fill="#DE8417"/>
</svg>
