<svg width="56" height="56" viewBox="0 0 56 56" fill="none" xmlns="http://www.w3.org/2000/svg">
<circle cx="28" cy="28" r="27" fill="#D9D9D9" stroke="url(#paint0_linear_197_79)" stroke-width="2"/>
<path d="M27.9995 12C29.9604 11.9994 31.8698 12.6332 33.4476 13.8084C35.0253 14.9836 36.1882 16.6383 36.7657 18.5297C37.3432 20.421 37.3047 22.4494 36.656 24.317C36.0073 26.1847 34.7825 27.7933 33.1614 28.9068C35.9752 29.9484 38.4157 31.8161 40.1688 34.2696C41.922 36.7231 42.9074 39.6499 42.9984 42.6735C43.0069 42.8413 42.9821 43.0092 42.9254 43.1672C42.8688 43.3252 42.7815 43.4702 42.6686 43.5937C42.5557 43.7173 42.4195 43.8168 42.2679 43.8864C42.1164 43.9561 41.9527 43.9945 41.7862 43.9995C41.6198 44.0044 41.4541 43.9757 41.2988 43.9151C41.1435 43.8546 41.0017 43.7633 40.8818 43.6467C40.7619 43.5301 40.6663 43.3905 40.6006 43.2361C40.5349 43.0817 40.5004 42.9156 40.4991 42.7475C40.3998 39.4686 39.0395 36.3575 36.7063 34.0736C34.3732 31.7896 31.2506 30.5123 28.0003 30.5123C24.75 30.5123 21.6274 31.7896 19.2943 34.0736C16.9611 36.3575 15.6008 39.4686 15.5015 42.7475C15.4915 43.0822 15.3503 43.3993 15.1087 43.6289C14.8672 43.8584 14.5452 43.9818 14.2135 43.9717C13.8819 43.9617 13.5678 43.8191 13.3403 43.5753C13.1128 43.3315 12.9906 43.0065 13.0006 42.6718C13.0918 39.6485 14.0775 36.722 15.8305 34.2689C17.5836 31.8158 20.024 29.9483 22.8375 28.9068C21.2164 27.7933 19.9916 26.1847 19.3429 24.317C18.6942 22.4494 18.6558 20.421 19.2332 18.5297C19.8107 16.6383 20.9736 14.9836 22.5514 13.8084C24.1291 12.6332 26.0386 11.9994 27.9995 12ZM21.3303 21.2552C21.3303 23.0404 22.033 24.7525 23.2837 26.0148C24.5344 27.2771 26.2307 27.9863 27.9995 27.9863C29.7682 27.9863 31.4646 27.2771 32.7153 26.0148C33.966 24.7525 34.6686 23.0404 34.6686 21.2552C34.6686 19.47 33.966 17.758 32.7153 16.4956C31.4646 15.2333 29.7682 14.5242 27.9995 14.5242C26.2307 14.5242 24.5344 15.2333 23.2837 16.4956C22.033 17.758 21.3303 19.47 21.3303 21.2552Z" fill="#1D1D1D"/>
<defs>
<linearGradient id="paint0_linear_197_79" x1="28" y1="0" x2="28" y2="56" gradientUnits="userSpaceOnUse">
<stop offset="0.394231" stop-color="#DE8417"/>
<stop offset="1" stop-color="#78470C"/>
</linearGradient>
</defs>
</svg>
